<svg width="96" height="96" viewBox="0 0 96 96" fill="none" xmlns="http://www.w3.org/2000/svg">
<g clip-path="url(#clip0_152_10)">
<path d="M24 76C24 80.4 27.6 84 32 84H64C68.4 84 72 80.4 72 76V28H24V76ZM33.84 47.52L39.48 41.88L48 50.36L56.48 41.88L62.12 47.52L53.64 56L62.12 64.48L56.48 70.12L48 61.64L39.52 70.12L33.88 64.48L42.36 56L33.84 47.52ZM62 16L58 12H38L34 16H20V24H76V16H62Z" fill="#4A4A4A"/>
</g>
<defs>
<clipPath id="clip0_152_10">
<rect width="96" height="96" fill="white"/>
</clipPath>
</defs>
</svg>
