<svg width="96" height="96" viewBox="0 0 96 96" fill="none" xmlns="http://www.w3.org/2000/svg">
<path d="M7.71306 89.266C5.87661 90.0006 4.13199 89.839 2.4792 88.7812C0.826399 87.7271 0 86.19 0 84.1699V63.6476C0 62.3621 0.367289 61.2144 1.10187 60.2043C1.83644 59.1943 2.84649 58.5515 4.13199 58.2761L44.0746 48.3593L4.13199 38.4425C2.84649 38.167 1.83644 37.5243 1.10187 36.5142C0.367289 35.5042 0 34.3564 0 33.0709V12.5486C0 10.5286 0.826399 8.98962 2.4792 7.93183C4.13199 6.87771 5.87661 6.71794 7.71306 7.45252L92.5567 43.2631C94.8522 44.2732 96 45.9719 96 48.3593C96 50.7466 94.8522 52.4453 92.5567 53.4554L7.71306 89.266Z" fill="white"/>
</svg>
